<?xml version="1.0" encoding="UTF-8" standalone="no"?>
<svg
   viewBox="0 0 512 512"
   style="height: 512px; width: 512px;"
   version="1.1"
   id="svg2"
   sodipodi:docname="checkpoint_icon.svg"
   inkscape:version="1.3.2 (091e20e, 2023-11-25, custom)"
   xmlns:inkscape="http://www.inkscape.org/namespaces/inkscape"
   xmlns:sodipodi="http://sodipodi.sourceforge.net/DTD/sodipodi-0.dtd"
   xmlns="http://www.w3.org/2000/svg"
   xmlns:svg="http://www.w3.org/2000/svg">
  <defs
     id="defs2" />
  <sodipodi:namedview
     id="namedview2"
     pagecolor="#ffffff"
     bordercolor="#000000"
     borderopacity="0.25"
     inkscape:showpageshadow="2"
     inkscape:pageopacity="0.0"
     inkscape:pagecheckerboard="0"
     inkscape:deskcolor="#d1d1d1"
     inkscape:zoom="1.5878906"
     inkscape:cx="255.68512"
     inkscape:cy="256"
     inkscape:window-width="1920"
     inkscape:window-height="1009"
     inkscape:window-x="-8"
     inkscape:window-y="-8"
     inkscape:window-maximized="1"
     inkscape:current-layer="svg2" />
  <g
     class=""
     transform="translate(0,0)"
     style="fill:#8da5f3;fill-opacity:1"
     id="g2">
    <path
       d="M356.688 19.188c-6.83-.032-12.837.64-18.125 1.843-24.178 5.495-36.437 21.983-50.938 41.157-14.5 19.175-31.317 40.993-62.78 47.47C195.08 115.78 154.27 108.253 91.25 78.5c-10.013 44.88-33.406 128.62-60.906 178.656 60.093 28.5 97.245 34.926 121 30.875.01 0 .02.004.03 0 21.59-5.827 34.487-20.094 47.876-43.092 17.014-29.227 32.563-72.198 60.25-123.188l16.406 8.938c-16.69 30.735-28.802 58.617-40 82.937 8.552-6.512 18.633-11.77 31.063-14.594 27.71-6.296 65.053-.495 121.655 24.75-6.932-29.276-1.885-61.913 9.875-92.218 12.686-32.69 33.038-62.907 56.28-84.03-42.595-19.553-73.152-27.554-95.124-28.282-1.01-.033-1.993-.058-2.97-.063zm127.54 14.144c-.858-.025-1.752.062-2.664.266-4.378.977-8.94 4.424-12.084 11.097L289.53 497.31h23.61L490.972 49.368c3.475-10.153-.75-15.86-6.746-16.035z"
       fill="#fff"
       fill-opacity="1"
       id="path2"
       style="fill:#8da5f3;fill-opacity:1" />
  </g>
</svg>
